<?xml version="1.0" standalone="no"?><!DOCTYPE svg PUBLIC "-//W3C//DTD SVG 1.1//EN" "http://www.w3.org/Graphics/SVG/1.1/DTD/svg11.dtd"><svg t="1730256373259" class="icon" viewBox="0 0 1024 1024" version="1.1" xmlns="http://www.w3.org/2000/svg" p-id="1151" xmlns:xlink="http://www.w3.org/1999/xlink" width="200" height="200"><path d="M974.793143 967.111111h-761.904762c-81.913905 0-148.31746-66.403556-148.31746-148.31746v-28.444445c0-81.913905 66.403556-148.31746 148.31746-148.31746h761.904762v325.079365z" fill="#FFEBB7" p-id="1152"></path><path d="M97.078857 674.539683h81.269841v260.063492h-81.269841z" fill="#5C546A" p-id="1153"></path><path d="M897.586794 593.269841h-865.52381V365.714286h865.52381c24.685714 0 44.698413 20.012698 44.698412 44.698412v138.158731c0 24.685714-20.012698 44.698413-44.698412 44.698412zM145.840762 73.142857h828.952381v243.809524h-828.952381z" fill="#FFEBB7" p-id="1154"></path><path d="M975.238095 999.619048H227.555556c-107.548444 0-195.047619-87.491048-195.047619-195.047619s87.499175-195.047619 195.047619-195.047619h747.682539c17.952508 0 32.507937 14.555429 32.507937 32.507936s-14.555429 32.507937-32.507937 32.507937H227.555556c-71.698286 0-130.031746 58.33346-130.031746 130.031746s58.33346 130.031746 130.031746 130.031746h747.682539c17.952508 0 32.507937 14.555429 32.507937 32.507936s-14.555429 32.507937-32.507937 32.507937z" fill="#00C37A" p-id="1155"></path><path d="M877.714286 609.52381H16.253968c-8.984381 0-16.253968-7.269587-16.253968-16.253969s7.269587-16.253968 16.253968-16.253968h861.460318c26.888127 0 48.761905-21.873778 48.761904-48.761905v-97.523809c0-26.888127-21.873778-48.761905-48.761904-48.761905H16.253968c-8.984381 0-16.253968-7.269587-16.253968-16.253968s7.269587-16.253968 16.253968-16.253969h861.460318c44.810159 0 81.269841 36.459683 81.269841 81.269842v97.523809c0 44.810159-36.459683 81.269841-81.269841 81.269842z" fill="#009BCA" p-id="1156"></path><path d="M974.793143 154.412698h-747.68254a16.253968 16.253968 0 0 1 0-32.507936h747.68254v32.507936zM974.793143 219.428571h-747.68254a16.253968 16.253968 0 0 1 0-32.507936h747.68254v32.507936zM974.793143 284.444444h-747.68254a16.253968 16.253968 0 0 1 0-32.507936h747.68254v32.507936zM32.062984 414.47619h845.206349a16.253968 16.253968 0 0 1 0 32.507937h-845.206349v-32.507937zM32.062984 479.492063h845.206349a16.253968 16.253968 0 0 1 0 32.507937h-845.206349v-32.507937zM32.062984 544.507937h845.206349a16.253968 16.253968 0 0 1 0 32.507936h-845.206349v-32.507936z" fill="#E6BE94" p-id="1157"></path><path d="M991.492063 349.460317H211.301587c-53.778286 0-97.52381-43.745524-97.523809-97.523809V121.904762c0-53.778286 43.745524-97.52381 97.523809-97.52381h780.190476c17.952508 0 32.507937 14.555429 32.507937 32.507937s-14.555429 32.507937-32.507937 32.507936H211.301587c-17.928127 0-32.507937 14.57981-32.507936 32.507937v130.031746c0 17.92 14.57981 32.507937 32.507936 32.507936h780.190476c17.952508 0 32.507937 14.555429 32.507937 32.507937s-14.555429 32.507937-32.507937 32.507936z" fill="#FF4F19" p-id="1158"></path><path d="M227.110603 902.095238c-8.984381 0-16.253968 7.269587-16.253968 16.253968s7.269587 16.253968 16.253968 16.253969h747.68254v-32.507937h-747.68254zM227.110603 837.079365c-8.984381 0-16.253968 7.269587-16.253968 16.253968s7.269587 16.253968 16.253968 16.253969h747.68254v-32.507937h-747.68254zM227.110603 772.063492c-8.984381 0-16.253968 7.269587-16.253968 16.253968s7.269587 16.253968 16.253968 16.253969h747.68254v-32.507937h-747.68254zM227.110603 707.047619c-8.984381 0-16.253968 7.269587-16.253968 16.253968s7.269587 16.253968 16.253968 16.253969h747.68254v-32.507937h-747.68254z" fill="#E6BE94" p-id="1159"></path></svg>